<?xml version="1.0" encoding="utf-8"?>
<!-- Generator: Adobe Illustrator 24.0.0, SVG Export Plug-In . SVG Version: 6.00 Build 0)  -->
<svg version="1.1" id="Layer_1" xmlns="http://www.w3.org/2000/svg" xmlns:xlink="http://www.w3.org/1999/xlink" x="0px" y="0px"
	 viewBox="0 0 1366 768" style="enable-background:new 0 0 1366 768;" xml:space="preserve">
<path d="M995.2,98.5C950.3,60.2,889.7,43.8,830.8,54C769.7,64.6,716,99.9,683.5,151.1C651,99.9,597.5,64.6,536.3,54
	c-59-10.1-119.5,6.3-164.5,44.5c-54,47.9-73.3,128.8-52.9,221.9c0.1,0.4,0.3,0.6,0.4,1c0.5,1.5,1.3,2.9,2.3,4.2
	c0.2,0.3,0.3,0.6,0.6,0.9c0.3,0.3,0.7,0.5,1.1,0.7c0.6,0.5,1.3,0.9,2,1.3c1.4,0.7,2.9,1.1,4.5,1.3c0.4,0,0.8,0.2,1.2,0.2
	c0.4-0.1,0.9-0.1,1.3-0.3c0.4,0,0.8,0,1.3,0c0.4-0.1,0.6-0.3,1-0.4c0.8-0.2,1.5-0.6,2.3-0.9c0.7-0.4,1.4-0.8,2.1-1.3
	c0.3-0.2,0.6-0.3,0.9-0.6l43.7-42.2l0.1-0.1c9.6-9.3,25.1-9.4,34.8-0.3s10.1,24.1,0.8,33.6l-71.6,69.2c-3.1,3-4.4,7.5-3.2,11.6
	c1.1,4.1,4.5,7.4,8.8,8.5s8.9-0.1,12-3.1l70.9-68.5c0.1-0.1,0.2-0.1,0.3-0.2c0.2-0.2,0.3-0.4,0.5-0.6l43.1-41.6
	c0.1-0.1,0.3-0.1,0.4-0.2c9.8-9.1,25.3-9.1,35.1,0c9.6,9.3,9.7,24.4,0.1,33.8l-0.1,0.1L383.3,454.4c-3.1,3-4.4,7.5-3.2,11.6
	c1.1,4.1,4.5,7.4,8.8,8.5s8.9-0.1,12-3.1l114.8-110.8l0.3-0.3c9.8-9.1,25.4-8.9,34.9,0.5s9.4,24.5-0.2,33.8L524.3,420l0,0l0,0
	l-95.9,92.7c-3.1,3-4.4,7.4-3.2,11.6s4.5,7.4,8.8,8.5s8.9-0.1,12-3.1l96-92.7c9.7-9.4,25.4-9.4,35.1,0c9.7,9.4,9.7,24.6,0,33.9
	c-0.1,0-0.1,0.1-0.1,0.2l-96.2,93c-0.1,0.1-0.1,0.1-0.1,0.2c-0.1,0.1-0.1,0.1-0.2,0.2c-0.5,0.6-0.9,1.2-1.2,1.9
	c-0.5,0.6-0.9,1.3-1.3,2c-0.2,0.7-0.4,1.5-0.5,2.3c-0.5,1.5-0.5,3,0.1,4.5c0.1,0.8,0.3,1.5,0.5,2.3c0.4,0.7,0.8,1.4,1.4,2
	c0.4,0.6,0.8,1.2,1.2,1.8c0.1,0.1,0.1,0.1,0.2,0.1c0.1,0.1,0.1,0.2,0.1,0.2c60.6,52.7,126.3,99.6,196.1,140.3c4,2.3,9,2.3,13,0
	c69.8-40.7,135.5-87.6,196.1-140.3c0.1-0.1,0.1-0.1,0.2-0.2c0.1-0.1,0.2-0.1,0.2-0.1c0.5-0.5,0.9-1.2,1.2-1.8c0.5-0.6,1-1.3,1.4-2
	c0.4-1.5,0.7-3,1-4.5c0-0.8-0.2-1.5-0.3-2.2c-0.1-0.8-0.2-1.5-0.5-2.3c-0.3-0.7-0.8-1.4-1.3-2c-0.3-0.7-0.7-1.3-1.2-1.9
	c-0.1-0.1-0.2-0.1-0.2-0.2c-0.1-0.1-0.1-0.1-0.1-0.2l-96.2-93c-0.1,0-0.1-0.1-0.1-0.2c-9.7-9.4-9.7-24.6,0-33.9
	c9.7-9.4,25.4-9.4,35.1,0l96,92.7c4.8,4.7,12.7,4.7,17.6,0s4.8-12.3,0-17l-95.9-92.7l0,0l0,0l-26.3-25.4c-6.3-6.1-8.7-14.9-6.4-23.2
	c2.3-8.3,9-14.8,17.6-17s17.7,0.1,24,6.2l0.2,0.1l114.5,110.7c4.9,4.6,12.7,4.6,17.5,0c4.8-4.7,4.8-12.2,0-16.9l-115-110.9l-0.1-0.1
	c-0.1-0.1-0.2-0.1-0.3-0.2l-17.3-16.8l0,0c-9.7-9.4-9.7-24.5,0-33.9s25.4-9.4,35.1,0c0.1,0.1,0.3,0.1,0.4,0.2l41.9,40.5
	c0.5,0.6,1,1.1,1.7,1.8l0,0l0,0l0,0l71.2,68.6c3.1,3,7.7,4.2,12,3.1s7.6-4.4,8.8-8.5s-0.1-8.6-3.2-11.6l-71.3-68.7
	c-0.2-0.3-0.5-0.5-0.7-0.8l-0.1-0.1c-9-9.5-8.6-24.1,0.9-33.1c9.8-9.1,25.3-9.1,35.1,0l43.8,42.4c0.3,0.3,0.6,0.3,0.9,0.6
	c1.3,1,2.8,1.8,4.3,2.3c0.3,0.1,0.6,0.3,1,0.4c0.8,0.2,1.7,0.3,2.6,0.3l0,0l0,0l0,0c1.5,0,3-0.3,4.4-0.8c0.4-0.2,0.8-0.4,1.1-0.6
	c1-0.5,1.9-1.1,2.8-1.8c0.2-0.1,0.3-0.2,0.5-0.3c0.3-0.3,0.4-0.6,0.6-0.9c0.6-0.7,1.2-1.5,1.6-2.4c0.3-0.5,0.5-1.1,0.7-1.7
	c0.2-0.4,0.3-0.7,0.5-1.1C1068.4,227.3,1049.3,146.4,995.2,98.5z M1027.9,293.2l-26.9-26c-19.6-18.1-50.6-18.1-70.2,0
	c-6.1,6-10.5,13.4-12.8,21.6l-13.5-13c-0.2-0.2-0.5-0.3-0.7-0.4c-17.2-16.3-44-18.2-63.6-4.6c-19.5,13.6-26.1,38.9-15.5,59.8
	c-17.1,3.1-31.2,14.8-37.2,30.6c-6,15.8-2.9,33.5,8.1,46.5c-8.7,2-16.7,6.3-23,12.4c-19.3,18.7-19.3,48.8-0.2,67.6
	c0.1,0.1,0.1,0.2,0.2,0.3l87,84.1c-54.9,46.5-113.8,88.5-176.1,125.3c-62.3-36.8-121.2-78.7-176.1-125.3l87.1-84.1
	c0.1-0.1,0.1-0.2,0.2-0.3c19.1-18.8,19-49-0.2-67.6c-6.4-6.1-14.3-10.4-23-12.4c11-13,14.1-30.7,8.2-46.5
	c-6-15.8-20.1-27.4-37.2-30.6c9.2-18.3,5.4-40.3-9.4-54.7c-19.4-18-50-18.2-69.6-0.5c-0.2,0.2-0.5,0.3-0.7,0.5L449.1,289
	c-2.2-8.2-6.5-15.6-12.6-21.6c-19.3-18.6-50.5-18.7-69.9-0.3c-0.1,0.1-0.2,0.1-0.3,0.2l-26.9,26c-11.2-75,6.3-138.7,49.4-177
	c39.5-33,92.2-47.2,143.6-38.6c58.4,9.4,108.2,45.8,140.3,102.5c2.4,3.6,6.5,5.8,10.9,5.8s8.5-2.2,10.9-5.8
	c32.1-56.8,81.9-93.2,140.3-102.5c51.4-8.6,104.1,5.6,143.6,38.6C1021.5,154.5,1039.1,218.2,1027.9,293.2z"/>
</svg>
